<?xml version="1.0" standalone="no"?>
<!DOCTYPE svg PUBLIC "-//W3C//DTD SVG 1.1//EN" "http://www.w3.org/Graphics/SVG/1.1/DTD/svg11.dtd" >
<svg xmlns="http://www.w3.org/2000/svg">
<metadata>
This is a custom SVG webfont generated by Font Squirrel.
</metadata>
<defs>
<font id="webfonta14MJWnq" horiz-adv-x="2777" >
<font-face units-per-em="4096" ascent="3277" descent="-819" />
<missing-glyph horiz-adv-x="1064" />
<glyph unicode=" "  horiz-adv-x="1064" />
<glyph unicode="&#x09;" horiz-adv-x="1064" />
<glyph unicode="&#xa0;" horiz-adv-x="1064" />
<glyph unicode="!" horiz-adv-x="1077" d="M696 1520l-73 -750h-172l-70 750v1347h315v-1347zM786 205q0 -104 -75 -176q-77 -74 -174 -74q-103 0 -177 74q-73 73 -73 176t73 180q74 78 177 78q97 0 174 -78q75 -76 75 -180z" />
<glyph unicode="&#x22;" horiz-adv-x="1884" d="M1540 2867l-70 -1339h-241l-70 1339h381zM725 2867l-70 -1339h-241l-70 1339h381z" />
<glyph unicode="#" horiz-adv-x="2752" d="M2540 721h-492v-721h-307v721h-729v-721h-307v721h-492v287h492v852h-492v286h492v721h307v-721h729v721h307v-721h492v-286h-492v-852h492v-287zM1741 1008v852h-729v-852h729z" />
<glyph unicode="$" horiz-adv-x="2383" d="M2118 774q0 -312 -211 -520q-213 -210 -584 -250v-414h-307v414q-484 53 -811 389l213 238q358 -344 762 -344q290 0 454 123t164 348q0 197 -143 319q-142 122 -541 266q-469 167 -649 338q-178 169 -178 478q0 303 194 485q193 181 535 219v414h307v-410 q390 -33 733 -303l-205 -250q-325 266 -688 266q-285 0 -420 -110q-137 -111 -137 -291q0 -184 131 -297t549 -260q483 -174 656 -350q176 -179 176 -498z" />
<glyph unicode="%" horiz-adv-x="3944" d="M1577 2023q0 -393 -186 -643t-486 -250q-298 0 -479 244q-180 243 -180 641q0 403 182 649q183 248 485 248q307 0 486 -243q178 -242 178 -646zM3011 2867l-1782 -2867h-299l1782 2867h299zM3699 848q0 -391 -187 -643q-186 -250 -485 -250q-298 0 -479 244t-181 641 q0 402 183 649q183 248 485 248q307 0 486 -244q178 -242 178 -645zM1294 2015q0 288 -104 469q-104 182 -281 182q-176 0 -278 -178q-103 -180 -103 -465q0 -287 105 -467t280 -180q171 0 277 187q104 184 104 452zM3416 840q0 288 -104 469q-104 182 -281 182 q-176 0 -278 -178q-103 -180 -103 -465q0 -287 105 -467t280 -180q172 0 277 186q104 184 104 453z" />
<glyph unicode="&#x26;" horiz-adv-x="2637" d="M2494 0h-376l-230 299q-336 -344 -774 -344q-446 0 -655 215t-209 555q0 303 160 502t483 362l-98 131q-130 171 -191 295q-63 127 -63 279q0 274 198 446q197 172 531 172q438 0 762 -258l-164 -254q-296 234 -602 234q-189 0 -299 -88q-111 -88 -111 -236 q0 -181 172 -401l873 -1135q95 172 196 504l270 -82q-100 -369 -286 -655zM1720 512l-663 868q-500 -230 -500 -647q0 -217 150 -358q151 -142 415 -142q352 0 598 279z" />
<glyph unicode="'" horiz-adv-x="1052" d="M721 2867l-70 -1339h-250l-69 1339h389z" />
<glyph unicode="(" horiz-adv-x="1425" d="M1225 -324l-135 -127q-832 758 -832 1680q0 946 832 1704l135 -127q-652 -673 -652 -1557q0 -900 652 -1573z" />
<glyph unicode=")" horiz-adv-x="1425" d="M1167 1253q0 -947 -831 -1704l-135 127q651 672 651 1557q0 901 -651 1573l135 127q831 -757 831 -1680z" />
<glyph unicode="*" horiz-adv-x="2048" d="M1753 1823l-127 -221l-545 405l70 -680h-254l70 680l-545 -405l-127 221l606 274l-606 275l127 221l545 -406l-70 680h254l-70 -680l545 406l127 -221l-606 -275z" />
<glyph unicode="+" horiz-adv-x="2363" d="M2138 1270h-807v-832h-299v832h-807v278h807v832h299v-832h807v-278z" />
<glyph unicode="," horiz-adv-x="983" d="M725 471l-266 -954h-213l61 954h418z" />
<glyph unicode="-" horiz-adv-x="1318" d="M1110 1348h-901v299h901v-299z" />
<glyph unicode="." horiz-adv-x="983" d="M754 217q0 -106 -78 -184t-184 -78q-107 0 -185 78t-78 184q0 107 78 189q77 81 185 81q104 0 182 -81q80 -83 80 -189z" />
<glyph unicode="/" horiz-adv-x="1740" d="M1634 3236l-1224 -3605h-304l1225 3605h303z" />
<glyph unicode="0" horiz-adv-x="2629" d="M2388 1434q0 -701 -293 -1090t-780 -389t-780 389t-293 1090q0 700 293 1089t780 389t780 -389t293 -1089zM2073 1434q0 561 -195 876q-196 316 -563 316t-563 -316q-195 -315 -195 -876q0 -562 195 -877t563 -315t563 315t195 877z" />
<glyph unicode="1" horiz-adv-x="1277" d="M897 0h-315v2294h-521v200q533 33 594 373h242v-2867z" />
<glyph unicode="2" horiz-adv-x="2330" d="M2044 0h-1884q12 267 78 469q66 204 196 369q125 160 273 284q155 130 374 279q377 259 498 403q121 145 121 342q0 225 -154 353q-152 127 -432 127q-387 0 -696 -267l-185 234q197 159 400 239q204 80 493 80q404 0 646 -190q243 -190 243 -559q0 -210 -78 -363 q-78 -154 -213 -272q-138 -121 -426 -320q-421 -286 -577 -475q-157 -190 -197 -430h1520v-303z" />
<glyph unicode="3" horiz-adv-x="2306" d="M2040 823q0 -406 -273 -637t-747 -231q-256 0 -500 115q-242 114 -389 282l213 213q302 -323 692 -323q688 0 688 573q0 263 -184 402t-496 139h-188v274h197q269 0 411 137t142 371q0 488 -590 488q-327 0 -578 -263l-200 205q327 344 786 344q398 0 647 -188 q250 -189 250 -545q0 -463 -405 -672q229 -49 376 -219q148 -171 148 -465z" />
<glyph unicode="4" horiz-adv-x="2560" d="M2380 680h-393v-680h-295v680h-1532v266l1482 1921h345v-1913h393v-274zM1692 954v1270v262q-161 -227 -406 -540l-389 -504q-286 -368 -389 -488h258h926z" />
<glyph unicode="5" horiz-adv-x="2478" d="M2220 954q0 -498 -291 -749q-290 -250 -786 -250q-504 0 -905 262l155 254q359 -229 774 -229q361 0 549 188q189 189 189 504q0 283 -176 442q-177 160 -508 160q-333 0 -598 -184l-316 123l99 1392h1642v-303h-1368l-70 -922q264 181 631 181q478 0 729 -236 q250 -235 250 -633z" />
<glyph unicode="6" horiz-adv-x="2514" d="M2335 885q0 -447 -295 -688q-296 -242 -762 -242q-465 0 -746 274q-282 275 -282 856q0 239 49 471q49 234 174 474t307 424q182 183 475 311q288 126 654 147v-282q-1127 -99 -1352 -1205q315 336 827 336q418 0 684 -225q267 -226 267 -651zM2019 868q0 289 -188 447 q-190 160 -528 160q-342 0 -539 -166q-199 -167 -199 -441q0 -270 201 -448q200 -178 524 -178q349 0 539 172t190 454z" />
<glyph unicode="7" horiz-adv-x="2277" d="M1950 2568q-931 -1149 -955 -2568h-323q37 1388 930 2564h-1536v303h1884v-299z" />
<glyph unicode="8" horiz-adv-x="2605" d="M2367 803q0 -411 -284 -629q-285 -219 -785 -219q-499 0 -780 215q-280 214 -280 625q0 552 569 741q-447 176 -447 606q0 344 250 557t697 213q445 0 692 -209q246 -209 246 -553q0 -417 -447 -606q569 -189 569 -741zM1929 2142q0 205 -155 344q-157 140 -476 140 q-318 0 -471 -138q-151 -136 -151 -338q0 -213 170 -350t461 -137q277 0 450 137q172 136 172 342zM2052 795q0 257 -201 419t-553 162t-548 -157q-197 -158 -197 -416q0 -259 192 -410q191 -151 562 -151q368 0 557 147q188 146 188 406z" />
<glyph unicode="9" horiz-adv-x="2514" d="M2265 1782q0 -239 -49 -471t-174 -473q-125 -240 -307 -424q-183 -185 -475 -312q-288 -126 -654 -147v283q1127 99 1352 1204q-315 -336 -828 -336q-418 0 -684 225t-266 651q0 448 295 689t762 241q464 0 745 -274q283 -275 283 -856zM1950 1999q0 269 -201 448 q-202 179 -524 179q-349 0 -539 -172t-190 -455q0 -289 188 -447q189 -159 528 -159q342 0 539 166q199 167 199 440z" />
<glyph unicode=":" horiz-adv-x="983" d="M754 1925q0 -106 -78 -184t-184 -78q-107 0 -185 78t-78 184q0 107 78 189q77 81 185 81q104 0 182 -81q80 -83 80 -189zM754 217q0 -106 -78 -184t-184 -78q-107 0 -185 78t-78 184q0 107 78 189q77 81 185 81q104 0 182 -81q80 -83 80 -189z" />
<glyph unicode=";" horiz-adv-x="983" d="M754 1925q0 -106 -78 -184t-184 -78q-107 0 -185 78t-78 184q0 107 78 189q77 81 185 81q104 0 182 -81q80 -83 80 -189zM696 471l-266 -954h-213l62 954h417z" />
<glyph unicode="&#x3c;" horiz-adv-x="1576" d="M1294 254l-1061 1016v278l1061 1016v-381l-819 -770l819 -770v-389z" />
<glyph unicode="=" horiz-adv-x="2363" d="M2036 1712h-1708v287h1708v-287zM2036 819h-1708v287h1708v-287z" />
<glyph unicode="&#x3e;" horiz-adv-x="1576" d="M1343 1270l-1060 -1016v381l819 770l-819 770v389l1060 -1016v-278z" />
<glyph unicode="?" horiz-adv-x="2297" d="M2023 2208q0 -275 -116 -424q-117 -151 -391 -318q-207 -124 -259 -245q-53 -124 -53 -451h-315q0 419 82 580q83 162 401 358q176 107 254 209t78 266q0 196 -160 318q-157 120 -418 120q-400 0 -741 -315l-205 225q388 381 959 381q403 0 643 -182q241 -183 241 -522z M1290 205q0 -103 -76 -176q-77 -74 -174 -74q-102 0 -176 74q-73 73 -73 176t73 180q74 78 176 78q98 0 174 -78q76 -77 76 -180z" />
<glyph unicode="@" horiz-adv-x="3424" d="M3191 1475q0 -852 -606 -852q-150 0 -265 71q-116 72 -174 187q-206 -258 -532 -258q-280 0 -453 143q-174 144 -174 418q0 253 187 395q186 141 477 141q271 0 454 -110v241q0 263 -422 263q-211 0 -417 -99l-90 176q253 127 536 127q606 0 606 -454v-791 q0 -119 72 -192q72 -74 219 -74q377 0 377 663q0 554 -360 902t-914 348q-556 0 -915 -353t-359 -925q0 -577 359 -936t915 -359q304 0 557 127l74 -180q-306 -139 -631 -139q-643 0 -1061 418t-418 1061q0 642 418 1060t1061 418q642 0 1061 -420q418 -419 418 -1017z M2105 1073v332q-197 119 -475 119q-184 0 -299 -92q-114 -92 -114 -236q0 -369 417 -369q143 0 271 68q126 67 200 178z" />
<glyph unicode="A" d="M2560 0h-336l-246 729h-1183l-250 -729h-328l995 2867h353zM1880 1020l-315 942q-131 374 -176 565q-46 -180 -181 -573l-315 -934h987z" />
<glyph unicode="B" horiz-adv-x="2564" d="M2339 848q0 -422 -240 -635t-694 -213h-1028v2867h1048q357 0 568 -180t211 -537q0 -438 -414 -585q549 -147 549 -717zM1884 2138q0 205 -119 322q-117 116 -352 116h-717v-893h693q253 0 374 127t121 328zM2019 831q0 266 -164 416q-163 150 -446 150h-713v-1106h729 q594 0 594 540z" />
<glyph unicode="C" horiz-adv-x="2572" d="M2351 430q-352 -475 -938 -475q-521 0 -840 418t-319 1057q0 641 328 1062q327 420 843 420q583 0 914 -458l-254 -193q-145 193 -293 276q-150 84 -375 84q-369 0 -606 -331q-238 -333 -238 -852t242 -856q241 -336 606 -336q418 0 709 377z" />
<glyph unicode="D" horiz-adv-x="2695" d="M2441 1454q0 -741 -375 -1098q-374 -356 -989 -356h-700v2867h758q594 0 950 -352t356 -1061zM2122 1442q0 552 -260 844q-259 290 -752 290h-414v-2285h422q1004 0 1004 1151z" />
<glyph unicode="E" horiz-adv-x="2404" d="M2171 0h-1794v2867h1732v-291h-1413v-901h820v-291h-820v-1093h1475v-291z" />
<glyph unicode="F" horiz-adv-x="2244" d="M2060 2576h-1364v-950h787v-291h-787v-1335h-319v2867h1683v-291z" />
<glyph unicode="G" horiz-adv-x="2699" d="M2474 1143q0 -573 -293 -881q-292 -307 -768 -307q-521 0 -840 418t-319 1057q0 641 328 1062q327 420 843 420q583 0 914 -458l-254 -193q-145 193 -293 276q-150 84 -375 84q-369 0 -606 -331q-238 -333 -238 -852t242 -856q241 -336 606 -336q361 0 551 219 q191 220 191 637v24h-516v295h827v-278z" />
<glyph unicode="H" horiz-adv-x="2818" d="M2441 0h-319v1352h-1426v-1352h-319v2867h319v-1225h1426v1225h319v-2867z" />
<glyph unicode="I" horiz-adv-x="1114" d="M717 0h-320v2867h320v-2867z" />
<glyph unicode="J" horiz-adv-x="2367" d="M2011 1098q0 -1143 -979 -1143q-675 0 -909 692l303 103q94 -248 236 -377q140 -127 382 -127q345 0 496 205q152 206 152 659v1757h319v-1769z" />
<glyph unicode="K" horiz-adv-x="2629" d="M2454 0h-365l-848 1528l-545 -705v-823h-319v2867h319v-1249v-385q142 204 418 561l832 1073h348l-840 -1077z" />
<glyph unicode="L" horiz-adv-x="2355" d="M2114 0h-1737v2867h319v-2576h1418v-291z" />
<glyph unicode="M" horiz-adv-x="3227" d="M2851 0h-307v1942v307q-38 -142 -172 -475l-766 -1848l-754 1848q-118 280 -168 475v-307v-1942h-307v2867h356l676 -1716q162 -405 205 -557q36 126 205 557l684 1716h348v-2867z" />
<glyph unicode="N" horiz-adv-x="2818" d="M2441 0h-299l-1253 1962q-120 192 -205 360v-196v-2126h-307v2867h311l1241 -1999q120 -192 205 -360v197v2162h307v-2867z" />
<glyph unicode="O" horiz-adv-x="2887" d="M2634 1438q0 -651 -332 -1067t-864 -416t-858 412t-326 1063q0 652 330 1067t862 415q533 0 860 -411q328 -412 328 -1063zM2314 1430q0 533 -250 862t-630 329q-378 0 -619 -325q-242 -326 -242 -858t248 -863q247 -329 629 -329q378 0 621 325t243 859z" />
<glyph unicode="P" horiz-adv-x="2531" d="M2363 2011q0 -417 -266 -651q-265 -234 -704 -234h-697v-1126h-319v2867h1073q409 0 661 -219t252 -637zM2044 1999q0 278 -156 428q-155 149 -450 149h-742v-1159h701q647 0 647 582z" />
<glyph unicode="Q" horiz-adv-x="2887" d="M2634 1438q0 -395 -133 -715q-134 -321 -371 -518l184 -299l-262 -156l-180 295q-206 -90 -434 -90q-532 0 -858 412t-326 1063q0 652 330 1067t862 415q533 0 860 -411q328 -412 328 -1063zM2314 1430q0 533 -250 862t-630 329q-378 0 -619 -325q-242 -326 -242 -858 t248 -863q247 -329 629 -329q148 0 270 49l-233 381l262 155l229 -376q336 324 336 975z" />
<glyph unicode="R" horiz-adv-x="2662" d="M2404 2056q0 -328 -180 -536q-181 -209 -495 -275l630 -1245h-368l-615 1221h-680v-1221h-319v2867h1134q399 0 646 -207t247 -604zM2085 2044q0 532 -586 532h-803v-1069h762q627 0 627 537z" />
<glyph unicode="S" horiz-adv-x="2424" d="M2138 754q0 -349 -256 -574t-694 -225q-283 0 -535 108q-251 108 -428 289l213 238q358 -344 762 -344q287 0 453 133t166 358q0 200 -148 334q-145 132 -536 272q-467 168 -648 349q-180 180 -180 487q0 341 246 537q245 196 651 196q488 0 873 -307l-205 -250 q-325 266 -688 266q-279 0 -418 -118t-139 -303q0 -189 133 -310t547 -268q476 -173 653 -360q178 -188 178 -508z" />
<glyph unicode="T" horiz-adv-x="2408" d="M2208 2576h-844v-2576h-320v2576h-843v291h2007v-291z" />
<glyph unicode="U" d="M2421 1171q0 -1217 -1028 -1216q-512 0 -775 305q-262 304 -262 903v1704h320v-1696q0 -925 733 -925q365 0 528 223q164 224 164 694v1704h320v-1696z" />
<glyph unicode="V" horiz-adv-x="2736" d="M2519 2867l-975 -2867h-352l-975 2867h336l639 -1962q104 -316 176 -565q12 45 180 573l643 1954h328z" />
<glyph unicode="W" horiz-adv-x="3506" d="M3273 2867l-574 -2867h-360l-451 1835q-90 377 -139 647q-44 -228 -139 -647l-451 -1835h-352l-574 2867h320l336 -1843l55 -332l51 -307q49 277 135 631l455 1851h344l455 -1851q86 -354 135 -631l51 307l56 332l335 1843h312z" />
<glyph unicode="X" horiz-adv-x="2588" d="M2355 0h-360l-439 750q-195 338 -262 475q-158 -299 -262 -475l-446 -750h-353l893 1491l-819 1376h361l368 -626q99 -168 262 -476q65 133 263 476l368 626h352l-819 -1368z" />
<glyph unicode="Y" horiz-adv-x="2670" d="M2478 2867l-983 -1728v-1139h-319v1135l-983 1732h364l459 -823q201 -366 323 -614q142 286 324 614l459 823h356z" />
<glyph unicode="Z" horiz-adv-x="2572" d="M2298 0h-2048v279l1356 1847l348 463h-324h-1298v278h1966v-278l-1356 -1848l-348 -462h324h1380v-279z" />
<glyph unicode="[" horiz-adv-x="1441" d="M1184 -451h-795v3318h795v-250h-496v-2818h496v-250z" />
<glyph unicode="\" horiz-adv-x="1740" d="M1634 -369h-303l-1225 3605h304z" />
<glyph unicode="]" horiz-adv-x="1441" d="M1053 -451h-795v250h496v2818h-496v250h795v-3318z" />
<glyph unicode="^" horiz-adv-x="2285" d="M2093 1565h-352l-602 966l-602 -966h-344l835 1302h229z" />
<glyph unicode="_" horiz-adv-x="2048" d="M2048 -627h-2048v258h2048v-258z" />
<glyph unicode="`" horiz-adv-x="2048" d="M1335 2437h-241l-619 655h438z" />
<glyph unicode="a" horiz-adv-x="2207" d="M1880 0h-307v262q-282 -307 -672 -307q-290 0 -489 164t-199 524q0 339 238 514q237 174 585 174q312 0 537 -123v254q0 475 -467 475q-305 0 -586 -163l-114 249q314 172 720 172q754 0 754 -696v-1499zM1573 528v435q-219 122 -553 122q-239 0 -371 -110 q-133 -111 -133 -311q0 -234 117 -347q116 -112 321 -112q386 0 619 323z" />
<glyph unicode="b" horiz-adv-x="2289" d="M2064 1110q0 -550 -229 -852q-229 -303 -582 -303q-352 0 -606 287v-242h-307v2814l307 172v-1098q282 307 647 307q345 0 557 -272q213 -273 213 -813zM1761 1106q0 402 -143 612q-144 211 -401 211q-320 0 -570 -311v-1073q94 -144 248 -234q153 -90 334 -90 q532 0 532 885z" />
<glyph unicode="c" horiz-adv-x="2027" d="M1831 1942l-184 -230q-241 217 -517 217q-257 0 -425 -223q-168 -224 -168 -616q0 -402 161 -635q162 -234 445 -234q257 0 495 230l185 -197q-291 -299 -693 -299q-381 0 -643 289t-262 821q0 557 275 844q274 286 651 286q390 0 680 -253z" />
<glyph unicode="d" horiz-adv-x="2289" d="M1950 0h-308v262q-282 -307 -647 -307q-345 0 -557 272q-213 273 -213 813q0 548 230 852q229 303 581 303q353 0 606 -286v905l308 172v-2986zM1642 532v1074q-94 143 -247 233t-334 90q-533 0 -533 -885q0 -400 144 -612q144 -211 401 -211q319 0 569 311z" />
<glyph unicode="e" horiz-adv-x="2211" d="M1978 1139q0 -95 -12 -168h-1434q21 -347 179 -549q157 -201 419 -201q175 0 304 47q124 45 290 158l144 -221q-216 -137 -377 -193q-163 -57 -393 -57q-157 0 -303 61q-148 62 -279 187q-132 126 -211 352q-80 229 -80 530q0 505 250 807q251 303 639 303 q410 0 637 -290t227 -766zM1692 1221q-21 328 -166 518t-416 190q-246 0 -397 -178q-153 -180 -181 -530h1160z" />
<glyph unicode="f" horiz-adv-x="1458" d="M1266 2646q-101 49 -250 49q-221 0 -221 -225v-320h422v-258h-422v-1892h-308v1892h-294v258h294v295q0 529 508 529q161 0 271 -37v-291z" />
<glyph unicode="g" horiz-adv-x="2289" d="M1950 193q0 -497 -250 -732t-840 -252l-98 234q523 16 702 170q178 153 178 539v110q-282 -307 -647 -307q-345 0 -557 272q-213 273 -213 813q0 548 230 852q229 303 581 303q353 0 606 -286v241h308v-1957zM1642 532v1074q-94 143 -247 233t-334 90q-533 0 -533 -885 q0 -400 144 -612q144 -211 401 -211q319 0 569 311z" />
<glyph unicode="h" horiz-adv-x="2322" d="M1995 0h-307v1257q0 344 -125 508t-383 164q-238 0 -385 -168q-148 -169 -148 -504v-1257h-307v2814l307 172v-1098q208 307 594 307q357 0 555 -217q199 -219 199 -667v-1311z" />
<glyph unicode="i" horiz-adv-x="1028" d="M733 2753q0 -91 -63 -154q-64 -64 -150 -64q-93 0 -160 64q-65 62 -65 154q0 95 65 157q67 64 160 64q87 0 150 -66t63 -155zM668 0h-308v2150h308v-2150z" />
<glyph unicode="j" horiz-adv-x="1028" d="M733 2753q0 -91 -63 -154q-64 -64 -150 -64q-93 0 -160 64q-65 62 -65 154q0 95 65 157q67 64 160 64q87 0 150 -66t63 -155zM668 49q0 -389 -123 -565t-512 -275l-103 230q283 86 357 199q73 112 73 415v2097h308v-2101z" />
<glyph unicode="k" horiz-adv-x="2068" d="M1896 0h-331l-545 1130l-373 -512v-618h-307v2814l307 172v-1856v-110l86 131l705 999h344l-565 -761z" />
<glyph unicode="l" horiz-adv-x="1028" d="M668 0h-308v2814l308 172v-2986z" />
<glyph unicode="m" horiz-adv-x="3473" d="M3146 0h-307v1257q0 360 -113 517q-112 155 -350 155q-480 0 -480 -672v-1257h-307v1257q0 357 -114 515q-114 157 -349 157q-479 0 -479 -672v-1257h-307v2150h307v-262q184 307 545 307q406 0 590 -368q229 368 651 368q713 0 713 -884v-1311z" />
<glyph unicode="n" horiz-adv-x="2322" d="M1995 0h-307v1257q0 344 -125 508t-383 164q-238 0 -385 -168q-148 -169 -148 -504v-1257h-307v2150h307v-262q208 307 594 307q357 0 555 -217q199 -219 199 -667v-1311z" />
<glyph unicode="o" horiz-adv-x="2318" d="M2093 1090q0 -528 -266 -832q-265 -303 -676 -303q-410 0 -668 295q-258 296 -258 823q0 526 267 825q266 297 675 297q411 0 668 -288q258 -289 258 -817zM1786 1081q0 413 -170 631q-169 217 -457 217q-286 0 -454 -217q-168 -218 -168 -631t168 -637 q168 -223 454 -223q288 0 457 223q170 224 170 637z" />
<glyph unicode="p" horiz-adv-x="2289" d="M2064 1110q0 -550 -229 -852q-229 -303 -582 -303q-352 0 -606 287v-860l-307 -173v2941h307v-262q282 307 647 307q345 0 557 -272q213 -273 213 -813zM1761 1106q0 402 -143 612q-144 211 -401 211q-320 0 -570 -311v-1073q94 -144 248 -234q153 -90 334 -90 q532 0 532 885z" />
<glyph unicode="q" horiz-adv-x="2289" d="M1950 -618l-308 -173v1053q-282 -307 -647 -307q-345 0 -557 272q-213 273 -213 813q0 548 230 852q229 303 581 303q353 0 606 -286v241h308v-2768zM1642 532v1074q-94 143 -247 233t-334 90q-533 0 -533 -885q0 -400 144 -612q144 -211 401 -211q319 0 569 311z" />
<glyph unicode="r" horiz-adv-x="1667" d="M1516 2142l-78 -311q-143 82 -324 82q-225 0 -346 -172t-121 -479v-1262h-307v2150h307v-266q78 135 221 223t312 88q216 0 336 -53z" />
<glyph unicode="s" horiz-adv-x="1912" d="M1671 561q0 -299 -215 -452q-216 -154 -522 -154q-415 0 -758 274l180 226q271 -238 586 -238q434 0 434 332q0 131 -108 221q-106 88 -400 217q-343 147 -477 281q-133 133 -133 379t188 397t484 151q410 0 688 -229l-172 -225q-246 192 -537 192q-168 0 -262 -73 t-94 -193q0 -132 94 -211q95 -80 381 -207q194 -87 277 -133q92 -51 190 -133t137 -182q39 -101 39 -240z" />
<glyph unicode="t" horiz-adv-x="1523" d="M1266 1892h-533v-1400q0 -143 47 -201t170 -58q155 0 303 62l-20 -266q-177 -74 -397 -74q-205 0 -308 115q-102 114 -102 372v1450h-266v258h266v664l307 172v-836h533v-258z" />
<glyph unicode="u" horiz-adv-x="2322" d="M1982 0h-307v262q-208 -307 -594 -307q-357 0 -555 217q-198 218 -198 668v1310h307v-1257q0 -344 125 -508t383 -164q238 0 385 168t147 504v1257h307v-2150z" />
<glyph unicode="v" horiz-adv-x="2138" d="M1974 2150l-770 -2150h-270l-770 2150h328l548 -1691l33 -103l33 103l549 1691h319z" />
<glyph unicode="w" horiz-adv-x="2990" d="M2798 2150l-570 -2150h-282l-390 1442q-42 151 -65 303q-22 -144 -66 -303l-389 -1442h-274l-569 2150h315l336 -1421l30 -158q19 -101 31 -145q42 204 70 303l385 1421h278l385 -1421q28 -99 70 -303q12 44 31 145l30 158l336 1421h308z" />
<glyph unicode="x" horiz-adv-x="2064" d="M1855 0h-339l-426 745l-66 119l-66 -119l-430 -745h-319l663 1110l-618 1040h340l381 -667l65 -119l66 119l385 667h319l-618 -1032z" />
<glyph unicode="y" horiz-adv-x="2174" d="M2011 2150l-1069 -2908h-307l295 783l-766 2125h323l525 -1560l73 -221l74 217l529 1564h323z" />
<glyph unicode="z" horiz-adv-x="2015" d="M1745 0h-1524v225l1176 1667h-1082v258h1430v-225l-1176 -1667h1176v-258z" />
<glyph unicode="{" horiz-adv-x="1626" d="M1409 -451q-430 12 -633 226t-203 647v352q0 176 -51 236q-50 59 -190 59h-99v287h99q140 0 190 59q51 60 51 236v364q0 433 203 647t633 226v-258q-287 -33 -410 -164q-122 -129 -122 -414v-287q0 -251 -52 -372q-51 -119 -190 -185q139 -66 190 -184q52 -121 52 -373 v-266q0 -285 122 -414q123 -131 410 -164v-258z" />
<glyph unicode="|" horiz-adv-x="1245" d="M770 -758h-295v4035h295v-4035z" />
<glyph unicode="}" horiz-adv-x="1626" d="M1393 1081h-99q-140 0 -190 -59q-51 -60 -51 -236v-364q0 -433 -203 -647t-633 -226v258q287 33 410 164t123 414v287q0 254 51 372q51 119 190 185q-139 66 -190 184q-51 119 -51 373v266q0 284 -123 414q-123 131 -410 164v258q430 -12 633 -226t203 -647v-352 q0 -176 51 -236q50 -59 190 -59h99v-287z" />
<glyph unicode="~" horiz-adv-x="2260" d="M2085 1729q-112 -272 -244 -394q-133 -123 -342 -123q-176 0 -385 140q-242 159 -352 159q-107 0 -170 -69q-64 -70 -146 -254l-270 123q111 271 244 393q134 123 342 123q173 0 385 -139q252 -160 352 -160q107 0 168 65q63 68 148 258z" />
<glyph unicode="&#xa1;" horiz-adv-x="1077" d="M791 2662q0 -101 -74 -180q-73 -78 -176 -78q-97 0 -174 78q-76 77 -76 180q0 104 76 177t174 73q103 0 176 -73q74 -74 74 -177zM696 0h-315v1348l74 749h172l69 -749v-1348z" />
<glyph unicode="&#xa2;" horiz-adv-x="2027" d="M1831 2327l-176 -222q-144 118 -250 162q-112 47 -275 47q-257 0 -425 -223t-168 -616q0 -402 161 -635q162 -234 445 -234q265 0 499 225l181 -192q-237 -242 -537 -287v-397h-315v397q-323 57 -535 340q-211 281 -211 758q0 484 213 766t533 348v385h315v-377 q312 -41 545 -245z" />
<glyph unicode="&#xa3;" horiz-adv-x="2502" d="M2261 0h-1917v287q203 234 301 436q95 197 100 477h-401v279h356q-33 83 -135 258q-139 224 -139 458q0 337 258 527q257 190 659 190q493 0 885 -356l-192 -234q-316 304 -701 304q-288 0 -440 -121q-154 -122 -154 -305q0 -167 131 -385q104 -176 148 -336h622v-279 h-593q-16 -494 -344 -909h1556v-291z" />
<glyph unicode="&#xa4;" horiz-adv-x="2437" d="M586 1020q66 -378 258 -580t504 -202q212 0 362 90q149 89 301 282l205 -180q-178 -231 -381 -354q-200 -121 -496 -121q-511 0 -804 389t-293 1086q0 704 299 1093t811 389q295 0 491 -106q199 -108 361 -352l-238 -185q-135 197 -270 279q-134 82 -353 82 q-302 0 -493 -193q-191 -192 -260 -553h1102v-258h-1135q-4 -55 -4 -188q0 -113 4 -160h1135v-258h-1106z" />
<glyph unicode="&#xa5;" horiz-adv-x="2506" d="M2355 2867l-942 -1728v-320h635v-282h-635v-537h-319v537h-672v282h672v316l-942 1732h364l426 -823q194 -376 315 -635q114 253 316 635l426 823h356z" />
<glyph unicode="&#xa6;" horiz-adv-x="2981" d="M2900 1413l-680 -495q-25 -17 -37 -13q-20 7 -8 41l123 328h-660v-733l328 123q33 12 41 -9q5 -13 -12 -37l-496 -679l-495 679q-17 25 -13 37q8 21 41 9l328 -123v733h-676l123 -328q12 -34 -8 -41q-12 -4 -37 13l-680 495l680 496q24 17 37 12q20 -7 8 -41l-123 -328 h676v775l-328 -123q-34 -12 -41 8q-4 12 13 37l495 680l496 -680q17 -24 12 -37q-7 -20 -41 -8l-328 123v-775h660l-123 328q-12 34 8 41q13 5 37 -12z" />
<glyph unicode="&#xa7;" horiz-adv-x="2572" d="M2347 1098q0 -431 -508 -713q221 -168 221 -434q0 -283 -221 -453t-573 -170q-427 0 -791 295l189 230q165 -136 305 -187q141 -51 346 -51q187 0 309 86q121 85 121 225q0 144 -127 244q-126 99 -459 182q-533 135 -733 307q-201 173 -201 484q0 430 508 712 q-221 168 -221 435q0 282 221 452t574 170q426 0 790 -295l-188 -229q-163 135 -305 186q-144 52 -347 52q-187 0 -309 -86q-121 -85 -121 -226q0 -143 127 -243q128 -101 459 -183q533 -135 733 -307q201 -173 201 -483zM2032 1073q0 188 -131 305q-129 116 -517 211 q-254 66 -393 123q-450 -208 -450 -545q0 -188 131 -305q130 -116 516 -211q254 -66 393 -123q451 209 451 545z" />
<glyph unicode="&#xa8;" horiz-adv-x="2048" d="M1647 2695q0 -91 -66 -158t-160 -67q-93 0 -159 67t-66 158q0 94 68 162t157 68q90 0 158 -68t68 -162zM852 2695q0 -91 -66 -158t-155 -67q-96 0 -162 65q-68 66 -68 160t68 162t162 68q89 0 155 -68q66 -67 66 -162z" />
<glyph unicode="&#xa9;" horiz-adv-x="3424" d="M3191 1434q0 -656 -420 -1067q-421 -412 -1059 -412t-1059 412q-420 411 -420 1067t420 1067t1059 411t1059 -411t420 -1067zM2990 1434q0 564 -364 927t-914 363q-548 0 -913 -363t-365 -927q0 -565 365 -928t913 -363q550 0 914 363t364 928zM2281 868 q-217 -286 -569 -286q-302 0 -491 241t-189 607q0 371 193 614q192 242 495 242q336 0 549 -279l-172 -135q-92 117 -174 162q-85 47 -207 47q-205 0 -334 -180t-129 -463q0 -282 131 -467t332 -185q225 0 406 222z" />
<glyph unicode="&#xaa;" horiz-adv-x="1863" d="M1556 1155h-278v180q-217 -217 -520 -217q-239 0 -402 133t-163 424q0 279 192 418q191 139 479 139q233 0 414 -86v176q0 357 -356 357q-253 0 -471 -131l-111 221q273 143 598 143q618 0 618 -561v-1196zM1278 1589v328q-180 90 -426 90q-181 0 -283 -84t-102 -231 q0 -173 88 -258q89 -86 244 -86q295 0 479 241z" />
<glyph unicode="&#xab;" horiz-adv-x="2359" d="M2175 0h-348l-832 1073l832 1077h348l-832 -1073zM1303 0h-349l-831 1073l831 1077h349l-832 -1073z" />
<glyph unicode="&#xac;" horiz-adv-x="2580" d="M2499 1413l-721 -479q-17 -13 -31 -13q-8 0 -14 5q-25 17 -13 37l123 307h-1618v286h1618l-123 308q-12 20 13 37q6 4 14 4q13 0 31 -13z" />
<glyph unicode="&#xad;" horiz-adv-x="1318" d="M1110 1348h-901v299h901v-299z" />
<glyph unicode="&#xae;" horiz-adv-x="3424" d="M3191 1434q0 -656 -420 -1067q-421 -412 -1059 -412t-1059 412q-420 411 -420 1067t420 1067t1059 411t1059 -411t420 -1067zM2990 1434q0 564 -364 927t-914 363q-548 0 -913 -363t-365 -927q0 -565 365 -928t913 -363q550 0 914 363t364 928zM2367 1806 q0 -180 -100 -301q-101 -121 -276 -162l364 -700h-254l-352 684h-352v-684h-217v1634h663q234 0 379 -118t145 -353zM2150 1806q0 279 -319 279h-434v-553h409q344 0 344 274z" />
<glyph unicode="&#xaf;" horiz-adv-x="2048" d="M1581 2531h-1114v287h1114v-287z" />
<glyph unicode="&#xb0;" horiz-adv-x="1949" d="M1741 2130q0 -341 -217 -565q-218 -226 -549 -226t-549 226q-217 224 -217 565q0 332 219 557t547 225q331 0 549 -225q217 -224 217 -557zM1470 2130q0 228 -137 379q-136 149 -358 149q-223 0 -359 -149q-137 -151 -137 -379q0 -236 137 -387q136 -150 359 -150 q224 0 360 148q135 147 135 389z" />
<glyph unicode="&#xb1;" horiz-adv-x="2981" d="M2900 1413l-680 -495q-25 -17 -37 -13q-20 7 -8 41l123 328h-660v-733l328 123q33 12 41 -9q5 -13 -12 -37l-496 -679l-495 679q-17 25 -13 37q8 21 41 9l328 -123v733h-676l123 -328q12 -34 -8 -41q-12 -4 -37 13l-680 495l680 496q24 17 37 12q20 -7 8 -41l-123 -328 h676v775l-328 -123q-34 -12 -41 8q-4 12 13 37l495 680l496 -680q17 -24 12 -37q-7 -20 -41 -8l-328 123v-775h660l-123 328q-12 34 8 41q13 5 37 -12z" />
<glyph unicode="&#xb2;" horiz-adv-x="2981" d="M2900 1413l-680 -495q-25 -17 -37 -13q-20 7 -8 41l123 328h-660v-733l328 123q33 12 41 -9q5 -13 -12 -37l-496 -679l-495 679q-17 25 -13 37q8 21 41 9l328 -123v733h-676l123 -328q12 -34 -8 -41q-12 -4 -37 13l-680 495l680 496q24 17 37 12q20 -7 8 -41l-123 -328 h676v775l-328 -123q-34 -12 -41 8q-4 12 13 37l495 680l496 -680q17 -24 12 -37q-7 -20 -41 -8l-328 123v-775h660l-123 328q-12 34 8 41q13 5 37 -12z" />
<glyph unicode="&#xb3;" horiz-adv-x="2981" d="M2900 1413l-680 -495q-25 -17 -37 -13q-20 7 -8 41l123 328h-660v-733l328 123q33 12 41 -9q5 -13 -12 -37l-496 -679l-495 679q-17 25 -13 37q8 21 41 9l328 -123v733h-676l123 -328q12 -34 -8 -41q-12 -4 -37 13l-680 495l680 496q24 17 37 12q20 -7 8 -41l-123 -328 h676v775l-328 -123q-34 -12 -41 8q-4 12 13 37l495 680l496 -680q17 -24 12 -37q-7 -20 -41 -8l-328 123v-775h660l-123 328q-12 34 8 41q13 5 37 -12z" />
<glyph unicode="&#xb4;" horiz-adv-x="2048" d="M1573 3092l-619 -655h-241l422 655h438z" />
<glyph unicode="&#xb5;" horiz-adv-x="3153" d="M3072 1413l-721 -479q-17 -13 -31 -13q-8 0 -14 5q-24 16 -12 37l123 307h-1680l123 -307q12 -21 -12 -37q-6 -5 -14 -5q-14 0 -31 13l-721 479l721 479q18 13 31 13q8 0 14 -4q24 -16 12 -37l-123 -308h1680l-123 308q-12 21 12 37q6 4 14 4q13 0 31 -13z" />
<glyph unicode="&#xb6;" horiz-adv-x="2818" d="M2437 -758h-315v3347h-373v-3347h-315v1827h-312q-392 0 -661 242q-268 241 -268 659q0 415 268 656t661 241h1315v-3625z" />
<glyph unicode="&#xb7;" horiz-adv-x="983" d="M754 1503q0 -106 -78 -184t-184 -78q-107 0 -185 78t-78 184q0 107 78 189t185 82q103 0 182 -82q80 -83 80 -189z" />
<glyph unicode="&#xb8;" horiz-adv-x="2048" d="M1528 -434q0 -357 -488 -357q-256 0 -483 148l78 131q173 -111 377 -111q274 0 274 177q0 135 -131 135q-114 0 -197 -74l-147 57l102 328h185l-70 -209q90 57 225 57q103 0 189 -69t86 -213z" />
<glyph unicode="&#xb9;" horiz-adv-x="2981" d="M2900 1413l-680 -495q-25 -17 -37 -13q-20 7 -8 41l123 328h-660v-733l328 123q33 12 41 -9q5 -13 -12 -37l-496 -679l-495 679q-17 25 -13 37q8 21 41 9l328 -123v733h-676l123 -328q12 -34 -8 -41q-12 -4 -37 13l-680 495l680 496q24 17 37 12q20 -7 8 -41l-123 -328 h676v775l-328 -123q-34 -12 -41 8q-4 12 13 37l495 680l496 -680q17 -24 12 -37q-7 -20 -41 -8l-328 123v-775h660l-123 328q-12 34 8 41q13 5 37 -12z" />
<glyph unicode="&#xba;" horiz-adv-x="1966" d="M1745 2028q0 -423 -217 -664q-218 -242 -553 -242q-336 0 -545 236t-209 657q0 426 215 662q214 235 555 235q337 0 545 -229q209 -230 209 -655zM1466 2023q0 317 -129 480t-354 163t-354 -163t-129 -480q0 -319 129 -487t354 -168t354 168t129 487z" />
<glyph unicode="&#xbb;" horiz-adv-x="2359" d="M2236 1077l-831 -1077h-348l831 1073l-831 1077h348zM1364 1077l-832 -1077h-348l832 1073l-832 1077h348z" />
<glyph unicode="&#xbc;" horiz-adv-x="2981" d="M2900 1413l-680 -495q-25 -17 -37 -13q-20 7 -8 41l123 328h-660v-733l328 123q33 12 41 -9q5 -13 -12 -37l-496 -679l-495 679q-17 25 -13 37q8 21 41 9l328 -123v733h-676l123 -328q12 -34 -8 -41q-12 -4 -37 13l-680 495l680 496q24 17 37 12q20 -7 8 -41l-123 -328 h676v775l-328 -123q-34 -12 -41 8q-4 12 13 37l495 680l496 -680q17 -24 12 -37q-7 -20 -41 -8l-328 123v-775h660l-123 328q-12 34 8 41q13 5 37 -12z" />
<glyph unicode="&#xbd;" horiz-adv-x="2981" d="M2900 1413l-680 -495q-25 -17 -37 -13q-20 7 -8 41l123 328h-660v-733l328 123q33 12 41 -9q5 -13 -12 -37l-496 -679l-495 679q-17 25 -13 37q8 21 41 9l328 -123v733h-676l123 -328q12 -34 -8 -41q-12 -4 -37 13l-680 495l680 496q24 17 37 12q20 -7 8 -41l-123 -328 h676v775l-328 -123q-34 -12 -41 8q-4 12 13 37l495 680l496 -680q17 -24 12 -37q-7 -20 -41 -8l-328 123v-775h660l-123 328q-12 34 8 41q13 5 37 -12z" />
<glyph unicode="&#xbe;" horiz-adv-x="2981" d="M2900 1413l-680 -495q-25 -17 -37 -13q-20 7 -8 41l123 328h-660v-733l328 123q33 12 41 -9q5 -13 -12 -37l-496 -679l-495 679q-17 25 -13 37q8 21 41 9l328 -123v733h-676l123 -328q12 -34 -8 -41q-12 -4 -37 13l-680 495l680 496q24 17 37 12q20 -7 8 -41l-123 -328 h676v775l-328 -123q-34 -12 -41 8q-4 12 13 37l495 680l496 -680q17 -24 12 -37q-7 -20 -41 -8l-328 123v-775h660l-123 328q-12 34 8 41q13 5 37 -12z" />
<glyph unicode="&#xbf;" horiz-adv-x="2297" d="M1507 2662q0 -103 -73 -180q-74 -78 -177 -78q-97 0 -174 78q-75 76 -75 180q0 105 75 177q76 73 174 73q104 0 177 -73t73 -177zM2118 336q-388 -381 -959 -381q-403 0 -643 182q-242 183 -242 522q0 274 117 424q117 151 391 318q206 123 258 246q54 127 54 450h315 q0 -418 -82 -579q-83 -164 -401 -359q-176 -107 -254 -209t-78 -266q0 -195 160 -317q158 -121 417 -121q401 0 742 315z" />
<glyph unicode="&#xc0;" d="M2560 0h-336l-246 729h-1183l-250 -729h-328l995 2867h353zM1880 1020l-315 942q-131 374 -176 565q-46 -180 -181 -573l-315 -934h987zM1516 3052h-242l-619 655h439z" />
<glyph unicode="&#xc1;" d="M2560 0h-336l-246 729h-1183l-250 -729h-328l995 2867h353zM1880 1020l-315 942q-131 374 -176 565q-46 -180 -181 -573l-315 -934h987zM2118 3707l-619 -655h-242l422 655h439z" />
<glyph unicode="&#xc2;" d="M2560 0h-336l-246 729h-1183l-250 -729h-328l995 2867h353zM1880 1020l-315 942q-131 374 -176 565q-46 -180 -181 -573l-315 -934h987zM2064 2970h-266l-414 421l-413 -421h-258l504 655h344z" />
<glyph unicode="&#xc3;" d="M2560 0h-336l-246 729h-1183l-250 -729h-328l995 2867h353zM1880 1020l-315 942q-131 374 -176 565q-46 -180 -181 -573l-315 -934h987zM2118 3596q0 -258 -119 -395t-299 -137q-164 0 -303 106q-159 123 -211 152t-113 29q-127 0 -160 -275h-254q0 258 119 395 q120 138 299 138q163 0 303 -107q147 -114 207 -147t117 -33q123 0 160 274h254z" />
<glyph unicode="&#xc4;" d="M2560 0h-336l-246 729h-1183l-250 -729h-328l995 2867h353zM1880 1020l-315 942q-131 374 -176 565q-46 -180 -181 -573l-315 -934h987zM2015 3310q0 -92 -65 -158q-66 -68 -160 -68t-160 68q-65 66 -65 158q0 94 67 161q68 68 158 68t158 -68q67 -67 67 -161zM1221 3310 q0 -90 -66 -158t-156 -68q-93 0 -161 66t-68 160q0 93 68 161t161 68q90 0 156 -68q66 -67 66 -161z" />
<glyph unicode="&#xc5;" d="M2560 0h-336l-246 729h-1183l-250 -729h-328l942 2695q-254 135 -254 430q0 201 135 338t344 137q210 0 345 -137t135 -338q0 -291 -250 -426zM1671 3125q0 127 -78 209t-209 82q-130 0 -208 -82t-78 -209q0 -131 78 -213t208 -82q131 0 209 82t78 213zM1880 1020 l-315 942q-131 374 -176 565q-46 -180 -181 -573l-315 -934h987z" />
<glyph unicode="&#xc6;" horiz-adv-x="4087" d="M3854 0h-1794v729h-1118l-479 -729h-365l1925 2867h1770v-291h-1430v-901h836v-291h-836v-1093h1491v-291zM2068 2458q-60 -100 -266 -414l-672 -1024h930v909q0 116 4 287t4 242z" />
<glyph unicode="&#xc7;" horiz-adv-x="2572" d="M2351 430q-336 -459 -901 -475l-53 -164q90 57 225 57q102 0 188 -69t86 -213q0 -357 -487 -357q-256 0 -483 148l78 131q172 -111 376 -111q275 0 275 177q0 135 -131 135q-114 0 -197 -74l-147 57l90 291q-459 61 -738 467q-278 404 -278 1000q0 641 328 1062 q327 420 843 420q583 0 914 -458l-254 -193q-145 193 -293 276q-150 84 -375 84q-369 0 -606 -331q-238 -333 -238 -852t242 -856q241 -336 606 -336q418 0 709 377z" />
<glyph unicode="&#xc8;" horiz-adv-x="2404" d="M2171 0h-1794v2867h1732v-291h-1413v-901h820v-291h-820v-1093h1475v-291zM1462 3052h-241l-619 655h438z" />
<glyph unicode="&#xc9;" horiz-adv-x="2404" d="M2171 0h-1794v2867h1732v-291h-1413v-901h820v-291h-820v-1093h1475v-291zM1905 3707l-619 -655h-242l422 655h439z" />
<glyph unicode="&#xca;" horiz-adv-x="2404" d="M2171 0h-1794v2867h1732v-291h-1413v-901h820v-291h-820v-1093h1475v-291zM1917 3052h-266l-414 421l-414 -421h-258l504 655h344z" />
<glyph unicode="&#xcb;" horiz-adv-x="2404" d="M2171 0h-1794v2867h1732v-291h-1413v-901h820v-291h-820v-1093h1475v-291zM1868 3310q0 -90 -66 -158t-160 -68q-93 0 -159 68t-66 158q0 93 68 161t157 68q90 0 158 -68t68 -161zM1073 3310q0 -92 -65 -158q-66 -68 -156 -68q-94 0 -162 66q-67 66 -67 160t67 161 q68 68 162 68q90 0 156 -68q65 -66 65 -161z" />
<glyph unicode="&#xcc;" horiz-adv-x="1114" d="M717 0h-320v2867h320v-2867zM705 3052h-242l-619 655h439z" />
<glyph unicode="&#xcd;" horiz-adv-x="1114" d="M717 0h-320v2867h320v-2867zM1274 3707l-619 -655h-241l422 655h438z" />
<glyph unicode="&#xce;" horiz-adv-x="1114" d="M717 0h-320v2867h320v-2867zM1221 3031h-267l-413 422l-414 -422h-258l504 655h344z" />
<glyph unicode="&#xcf;" horiz-adv-x="1114" d="M717 0h-320v2867h320v-2867zM1176 3326q0 -90 -68 -158q-67 -67 -158 -67q-90 0 -157 67q-68 68 -68 158q0 94 68 162q67 67 157 67q91 0 158 -67q68 -68 68 -162zM381 3326q0 -90 -66 -158q-66 -67 -155 -67q-96 0 -162 65q-68 66 -68 160t68 162q67 67 162 67 q89 0 155 -67q66 -68 66 -162z" />
<glyph unicode="&#xd0;" horiz-adv-x="2793" d="M2482 1454q0 -741 -375 -1098q-374 -356 -989 -356h-700v1356h-254v286h254v1225h758q594 0 950 -352t356 -1061zM2163 1442q0 552 -260 844q-259 290 -752 290h-422v-934h582v-286h-582v-1065h430q1003 0 1004 1151z" />
<glyph unicode="&#xd1;" horiz-adv-x="2818" d="M2441 0h-299l-1253 1962q-120 192 -205 360v-196v-2126h-307v2867h311l1241 -1999q120 -192 205 -360v197v2162h307v-2867zM2159 3613q0 -259 -119 -396t-299 -137q-163 0 -303 107q-154 119 -211 151q-52 29 -113 29q-127 0 -160 -275h-254q0 259 119 396t299 137 q163 0 303 -107q147 -114 207 -147t117 -33q122 0 160 275h254z" />
<glyph unicode="&#xd2;" horiz-adv-x="2887" d="M2634 1438q0 -651 -332 -1067t-864 -416t-858 412t-326 1063q0 652 330 1067t862 415q533 0 860 -411q328 -412 328 -1063zM2314 1430q0 533 -250 862t-630 329q-378 0 -619 -325q-242 -326 -242 -858t248 -863q247 -329 629 -329q378 0 621 325t243 859zM1606 3052h-242 l-619 655h439z" />
<glyph unicode="&#xd3;" horiz-adv-x="2887" d="M2634 1438q0 -651 -332 -1067t-864 -416t-858 412t-326 1063q0 652 330 1067t862 415q533 0 860 -411q328 -412 328 -1063zM2314 1430q0 533 -250 862t-630 329q-378 0 -619 -325q-242 -326 -242 -858t248 -863q247 -329 629 -329q378 0 621 325t243 859zM2130 3707 l-619 -655h-241l422 655h438z" />
<glyph unicode="&#xd4;" horiz-adv-x="2887" d="M2634 1438q0 -651 -332 -1067t-864 -416t-858 412t-326 1063q0 652 330 1067t862 415q533 0 860 -411q328 -412 328 -1063zM2314 1430q0 533 -250 862t-630 329q-378 0 -619 -325q-242 -326 -242 -858t248 -863q247 -329 629 -329q378 0 621 325t243 859zM2114 3031h-267 l-413 422l-414 -422h-258l504 655h344z" />
<glyph unicode="&#xd5;" horiz-adv-x="2887" d="M2634 1438q0 -651 -332 -1067t-864 -416t-858 412t-326 1063q0 652 330 1067t862 415q533 0 860 -411q328 -412 328 -1063zM2314 1430q0 533 -250 862t-630 329q-378 0 -619 -325q-242 -326 -242 -858t248 -863q247 -329 629 -329q378 0 621 325t243 859zM2167 3596 q0 -258 -119 -395t-299 -137q-164 0 -303 106q-159 123 -211 152t-113 29q-126 0 -159 -275h-254q0 259 118 395q120 138 299 138q164 0 304 -107q149 -116 206 -147q60 -33 117 -33q123 0 160 274h254z" />
<glyph unicode="&#xd6;" horiz-adv-x="2887" d="M2634 1438q0 -651 -332 -1067t-864 -416t-858 412t-326 1063q0 652 330 1067t862 415q533 0 860 -411q328 -412 328 -1063zM2314 1430q0 533 -250 862t-630 329q-378 0 -619 -325q-242 -326 -242 -858t248 -863q247 -329 629 -329q378 0 621 325t243 859zM2064 3310 q0 -92 -65 -158q-66 -68 -160 -68t-160 68q-65 66 -65 158q0 94 67 161q68 68 158 68t158 -68q67 -67 67 -161zM1270 3310q0 -90 -66 -158t-155 -68q-95 0 -162 66q-68 66 -68 160q0 93 68 161t162 68q89 0 155 -68q66 -67 66 -161z" />
<glyph unicode="&#xd7;" horiz-adv-x="2981" d="M2900 1413l-680 -495q-25 -17 -37 -13q-20 7 -8 41l123 328h-660v-733l328 123q33 12 41 -9q5 -13 -12 -37l-496 -679l-495 679q-17 25 -13 37q8 21 41 9l328 -123v733h-676l123 -328q12 -34 -8 -41q-12 -4 -37 13l-680 495l680 496q24 17 37 12q20 -7 8 -41l-123 -328 h676v775l-328 -123q-34 -12 -41 8q-4 12 13 37l495 680l496 -680q17 -24 12 -37q-7 -20 -41 -8l-328 123v-775h660l-123 328q-12 34 8 41q13 5 37 -12z" />
<glyph unicode="&#xd8;" horiz-adv-x="2887" d="M2634 1438q0 -651 -332 -1067t-864 -416q-282 0 -508 119l-127 -279h-283l197 426q-463 409 -463 1209q0 652 330 1067t862 415q243 0 455 -94l114 254h283l-176 -389q243 -190 377 -512q135 -324 135 -733zM1778 2552q-163 82 -344 82q-380 0 -627 -328 q-246 -327 -246 -868q0 -582 291 -918zM2327 1430q0 622 -336 966l-938 -2052q175 -111 397 -111q382 0 629 330q248 331 248 867z" />
<glyph unicode="&#xd9;" d="M2421 1171q0 -1217 -1028 -1216q-512 0 -775 305q-262 304 -262 903v1704h320v-1696q0 -925 733 -925q365 0 528 223q164 224 164 694v1704h320v-1696zM1552 2990h-241l-619 655h438z" />
<glyph unicode="&#xda;" d="M2421 1171q0 -1217 -1028 -1216q-512 0 -775 305q-262 304 -262 903v1704h320v-1696q0 -925 733 -925q365 0 528 223q164 224 164 694v1704h320v-1696zM2077 3645l-619 -655h-241l421 655h439z" />
<glyph unicode="&#xdb;" d="M2421 1171q0 -1217 -1028 -1216q-512 0 -775 305q-262 304 -262 903v1704h320v-1696q0 -925 733 -925q365 0 528 223q164 224 164 694v1704h320v-1696zM2064 3052h-266l-414 421l-413 -421h-258l504 655h344z" />
<glyph unicode="&#xdc;" d="M2421 1171q0 -1217 -1028 -1216q-512 0 -775 305q-262 304 -262 903v1704h320v-1696q0 -925 733 -925q365 0 528 223q164 224 164 694v1704h320v-1696zM2011 3310q0 -91 -67 -158q-68 -68 -158 -68t-158 68q-67 67 -67 158q0 94 67 161q68 68 158 68t158 -68 q67 -67 67 -161zM1217 3310q0 -90 -66 -158t-156 -68q-93 0 -161 66t-68 160q0 93 68 161t161 68q90 0 156 -68q66 -67 66 -161z" />
<glyph unicode="&#xdd;" horiz-adv-x="2670" d="M2478 2867l-983 -1728v-1139h-319v1135l-983 1732h364l459 -823q201 -366 323 -614q142 286 324 614l459 823h356zM2044 3629l-619 -655h-241l422 655h438z" />
<glyph unicode="&#xde;" horiz-adv-x="2531" d="M2363 1495q0 -417 -266 -651q-265 -234 -704 -234h-697v-610h-319v2867h319v-516h754q409 0 661 -219t252 -637zM2044 1483q0 278 -156 428q-155 149 -450 149h-742v-1159h701q647 0 647 582z" />
<glyph unicode="&#xdf;" horiz-adv-x="2342" d="M2118 926q0 -479 -293 -703q-292 -223 -768 -223h-62v270h74q741 0 741 627q0 299 -208 449q-207 149 -525 149h-82v266h95q241 0 370 123t129 361q0 213 -129 338q-128 124 -346 124q-209 0 -338 -141t-129 -399v-2785l-307 -173v2905q0 410 211 634q212 226 571 226 q348 0 561 -207t213 -518q0 -426 -372 -594q248 -61 422 -238q172 -175 172 -491z" />
<glyph unicode="&#xe0;" horiz-adv-x="2207" d="M1880 0h-307v262q-282 -307 -672 -307q-290 0 -489 164t-199 524q0 339 238 514q237 174 585 174q312 0 537 -123v254q0 475 -467 475q-305 0 -586 -163l-114 249q314 172 720 172q754 0 754 -696v-1499zM1573 528v435q-219 122 -553 122q-239 0 -371 -110 q-133 -111 -133 -311q0 -234 117 -347q116 -112 321 -112q386 0 619 323zM1307 2437h-242l-619 655h439z" />
<glyph unicode="&#xe1;" horiz-adv-x="2207" d="M1880 0h-307v262q-282 -307 -672 -307q-290 0 -489 164t-199 524q0 339 238 514q237 174 585 174q312 0 537 -123v254q0 475 -467 475q-305 0 -586 -163l-114 249q314 172 720 172q754 0 754 -696v-1499zM1573 528v435q-219 122 -553 122q-239 0 -371 -110 q-133 -111 -133 -311q0 -234 117 -347q116 -112 321 -112q386 0 619 323zM1790 3092l-619 -655h-241l422 655h438z" />
<glyph unicode="&#xe2;" horiz-adv-x="2207" d="M1880 0h-307v262q-282 -307 -672 -307q-290 0 -489 164t-199 524q0 339 238 514q237 174 585 174q312 0 537 -123v254q0 475 -467 475q-305 0 -586 -163l-114 249q314 172 720 172q754 0 754 -696v-1499zM1573 528v435q-219 122 -553 122q-239 0 -371 -110 q-133 -111 -133 -311q0 -234 117 -347q116 -112 321 -112q386 0 619 323zM1786 2417h-266l-414 422l-414 -422h-258l504 655h344z" />
<glyph unicode="&#xe3;" horiz-adv-x="2207" d="M1880 0h-307v262q-282 -307 -672 -307q-290 0 -489 164t-199 524q0 339 238 514q237 174 585 174q312 0 537 -123v254q0 475 -467 475q-305 0 -586 -163l-114 249q314 172 720 172q754 0 754 -696v-1499zM1573 528v435q-219 122 -553 122q-239 0 -371 -110 q-133 -111 -133 -311q0 -234 117 -347q116 -112 321 -112q386 0 619 323zM1835 2982q0 -258 -119 -395q-120 -138 -299 -138q-163 0 -303 107q-154 119 -211 151q-52 29 -112 29q-127 0 -160 -274h-254q0 258 119 395t299 137q164 0 303 -106q151 -117 207 -148 q60 -33 116 -33q122 0 160 275h254z" />
<glyph unicode="&#xe4;" horiz-adv-x="2207" d="M1880 0h-307v262q-282 -307 -672 -307q-290 0 -489 164t-199 524q0 339 238 514q237 174 585 174q312 0 537 -123v254q0 475 -467 475q-305 0 -586 -163l-114 249q314 172 720 172q754 0 754 -696v-1499zM1573 528v435q-219 122 -553 122q-239 0 -371 -110 q-133 -111 -133 -311q0 -234 117 -347q116 -112 321 -112q386 0 619 323zM1729 2675q0 -94 -66 -160t-160 -66t-160 66q-65 65 -65 160q0 93 68 161t157 68q90 0 158 -68t68 -161zM934 2675q0 -91 -66 -158q-66 -68 -155 -68q-95 0 -162 66q-68 66 -68 160q0 93 68 161 t162 68q89 0 155 -68t66 -161z" />
<glyph unicode="&#xe5;" horiz-adv-x="2207" d="M1880 0h-307v262q-282 -307 -672 -307q-290 0 -489 164t-199 524q0 339 238 514q237 174 585 174q312 0 537 -123v254q0 475 -467 475q-305 0 -586 -163l-114 249q314 172 720 172q754 0 754 -696v-1499zM1573 528v435q-219 122 -553 122q-239 0 -371 -110 q-133 -111 -133 -311q0 -234 117 -347q116 -112 321 -112q386 0 619 323zM1589 2933q0 -200 -137 -340q-136 -139 -342 -139t-342 139q-137 140 -137 340q0 201 135 338t344 137t344 -137t135 -338zM1397 2933q0 127 -78 209t-209 82t-209 -82t-78 -209q0 -131 78 -213 t209 -82t209 82t78 213z" />
<glyph unicode="&#xe6;" horiz-adv-x="3432" d="M3199 1139q0 -95 -12 -168h-1377q21 -354 166 -551q146 -199 404 -199q171 0 282 45q106 43 283 160l143 -221q-220 -141 -366 -195q-149 -55 -375 -55q-429 0 -664 373q-177 -202 -358 -287q-184 -86 -453 -86q-281 0 -471 164q-188 163 -188 524q0 343 225 516 q224 172 570 172q283 0 508 -123v254q0 246 -103 361q-102 114 -336 114q-276 0 -557 -163l-114 249q314 172 692 172q548 0 626 -389q201 389 639 389q411 0 623 -288q213 -289 213 -768zM2912 1221q-40 708 -553 708q-497 0 -549 -708h1102zM1573 569q-54 169 -66 398 q-217 118 -516 118q-475 0 -475 -421q0 -459 410 -459q368 0 647 364z" />
<glyph unicode="&#xe7;" horiz-adv-x="2027" d="M1831 1942l-184 -230q-241 217 -517 217q-257 0 -425 -223q-168 -224 -168 -616q0 -402 161 -635q162 -234 445 -234q257 0 495 230l185 -197q-291 -299 -688 -299l-54 -164q90 57 226 57q103 0 188 -69q86 -69 86 -213q0 -357 -487 -357q-257 0 -484 148l78 131 q172 -111 377 -111q274 0 274 177q0 135 -131 135q-117 0 -196 -74l-148 57l94 299q-318 61 -526 344q-207 282 -207 750q0 557 275 844q274 286 651 286q390 0 680 -253z" />
<glyph unicode="&#xe8;" horiz-adv-x="2211" d="M1978 1139q0 -95 -12 -168h-1434q21 -347 179 -549q157 -201 419 -201q175 0 304 47q124 45 290 158l144 -221q-216 -137 -377 -193q-163 -57 -393 -57q-157 0 -303 61q-148 62 -279 187q-132 126 -211 352q-80 229 -80 530q0 505 250 807q251 303 639 303 q410 0 637 -290t227 -766zM1692 1221q-21 328 -166 518t-416 190q-246 0 -397 -178q-153 -180 -181 -530h1160zM1307 2437h-242l-619 655h439z" />
<glyph unicode="&#xe9;" horiz-adv-x="2211" d="M1978 1139q0 -95 -12 -168h-1434q21 -347 179 -549q157 -201 419 -201q175 0 304 47q124 45 290 158l144 -221q-216 -137 -377 -193q-163 -57 -393 -57q-157 0 -303 61q-148 62 -279 187q-132 126 -211 352q-80 229 -80 530q0 505 250 807q251 303 639 303 q410 0 637 -290t227 -766zM1692 1221q-21 328 -166 518t-416 190q-246 0 -397 -178q-153 -180 -181 -530h1160zM1790 3092l-619 -655h-241l422 655h438z" />
<glyph unicode="&#xea;" horiz-adv-x="2211" d="M1978 1139q0 -95 -12 -168h-1434q21 -347 179 -549q157 -201 419 -201q175 0 304 47q124 45 290 158l144 -221q-216 -137 -377 -193q-163 -57 -393 -57q-157 0 -303 61q-148 62 -279 187q-132 126 -211 352q-80 229 -80 530q0 505 250 807q251 303 639 303 q410 0 637 -290t227 -766zM1692 1221q-21 328 -166 518t-416 190q-246 0 -397 -178q-153 -180 -181 -530h1160zM1786 2396h-266l-414 422l-414 -422h-258l504 656h344z" />
<glyph unicode="&#xeb;" horiz-adv-x="2211" d="M1978 1139q0 -95 -12 -168h-1434q21 -347 179 -549q157 -201 419 -201q175 0 304 47q124 45 290 158l144 -221q-216 -137 -377 -193q-163 -57 -393 -57q-157 0 -303 61q-148 62 -279 187q-132 126 -211 352q-80 229 -80 530q0 505 250 807q251 303 639 303 q410 0 637 -290t227 -766zM1692 1221q-21 328 -166 518t-416 190q-246 0 -397 -178q-153 -180 -181 -530h1160zM1733 2675q0 -94 -68 -160q-67 -66 -158 -66q-89 0 -157 66t-68 160q0 93 68 161t157 68q90 0 158 -68t68 -161zM938 2675q0 -91 -66 -158q-66 -68 -155 -68 q-95 0 -162 66q-68 66 -68 160q0 93 68 161t162 68q89 0 155 -68t66 -161z" />
<glyph unicode="&#xec;" horiz-adv-x="1028" d="M668 0h-308v2150h308v-2150zM647 2437h-241l-619 655h438z" />
<glyph unicode="&#xed;" horiz-adv-x="1028" d="M668 0h-308v2150h308v-2150zM1241 3092l-618 -655h-242l422 655h438z" />
<glyph unicode="&#xee;" horiz-adv-x="1028" d="M668 0h-308v2150h308v-2150zM1188 2376h-266l-414 422l-414 -422h-258l504 655h344z" />
<glyph unicode="&#xef;" horiz-adv-x="1028" d="M668 0h-308v2150h308v-2150zM1135 2654q0 -89 -68 -157t-158 -68q-89 0 -157 68t-68 157q0 94 68 162t157 68q90 0 158 -68t68 -162zM340 2654q0 -90 -66 -157q-66 -68 -155 -68q-96 0 -162 65q-68 66 -68 160t68 162t162 68q89 0 155 -68t66 -162z" />
<glyph unicode="&#xf0;" horiz-adv-x="2318" d="M2093 1221q0 -642 -244 -955q-242 -311 -698 -311q-394 0 -659 268q-267 270 -267 740t254 741q253 270 606 270q489 0 730 -364q-123 545 -455 803l-230 -259l-208 177l196 221q-180 74 -368 90v270q301 -21 553 -151l139 151l209 -176l-119 -131q561 -459 561 -1384z M1786 971q0 373 -178 555t-478 182q-278 0 -436 -192q-157 -191 -157 -545q0 -366 172 -557q173 -193 450 -193q278 0 453 193q174 192 174 557z" />
<glyph unicode="&#xf1;" horiz-adv-x="2322" d="M1995 0h-307v1257q0 344 -125 508t-383 164q-238 0 -385 -168q-148 -169 -148 -504v-1257h-307v2150h307v-262q208 307 594 307q357 0 555 -217q199 -219 199 -667v-1311zM1876 2982q0 -258 -119 -395q-120 -138 -299 -138q-163 0 -303 107q-154 119 -211 151 q-52 29 -113 29q-126 0 -159 -274h-254q0 258 119 395t299 137q164 0 303 -106q151 -117 207 -148q60 -33 116 -33q122 0 160 275h254z" />
<glyph unicode="&#xf2;" horiz-adv-x="2318" d="M2093 1090q0 -528 -266 -832q-265 -303 -676 -303q-410 0 -668 295q-258 296 -258 823q0 526 267 825q266 297 675 297q411 0 668 -288q258 -289 258 -817zM1786 1081q0 413 -170 631q-169 217 -457 217q-286 0 -454 -217q-168 -218 -168 -631t168 -637 q168 -223 454 -223q288 0 457 223q170 224 170 637zM1339 2437h-241l-619 655h439z" />
<glyph unicode="&#xf3;" horiz-adv-x="2318" d="M2093 1090q0 -528 -266 -832q-265 -303 -676 -303q-410 0 -668 295q-258 296 -258 823q0 526 267 825q266 297 675 297q411 0 668 -288q258 -289 258 -817zM1786 1081q0 413 -170 631q-169 217 -457 217q-286 0 -454 -217q-168 -218 -168 -631t168 -637 q168 -223 454 -223q288 0 457 223q170 224 170 637zM1823 3092l-619 -655h-241l421 655h439z" />
<glyph unicode="&#xf4;" horiz-adv-x="2318" d="M2093 1090q0 -528 -266 -832q-265 -303 -676 -303q-410 0 -668 295q-258 296 -258 823q0 526 267 825q266 297 675 297q411 0 668 -288q258 -289 258 -817zM1786 1081q0 413 -170 631q-169 217 -457 217q-286 0 -454 -217q-168 -218 -168 -631t168 -637 q168 -223 454 -223q288 0 457 223q170 224 170 637zM1831 2396h-266l-414 422l-414 -422h-258l504 656h344z" />
<glyph unicode="&#xf5;" horiz-adv-x="2318" d="M2093 1090q0 -528 -266 -832q-265 -303 -676 -303q-410 0 -668 295q-258 296 -258 823q0 526 267 825q266 297 675 297q411 0 668 -288q258 -289 258 -817zM1786 1081q0 413 -170 631q-169 217 -457 217q-286 0 -454 -217q-168 -218 -168 -631t168 -637 q168 -223 454 -223q288 0 457 223q170 224 170 637zM1884 2982q0 -258 -119 -395q-120 -138 -299 -138q-163 0 -303 107q-154 119 -211 151q-52 29 -112 29q-127 0 -160 -274h-254q0 258 119 395t299 137q164 0 303 -106q151 -117 207 -148q60 -33 116 -33q122 0 160 275 h254z" />
<glyph unicode="&#xf6;" horiz-adv-x="2318" d="M2093 1090q0 -528 -266 -832q-265 -303 -676 -303q-410 0 -668 295q-258 296 -258 823q0 526 267 825q266 297 675 297q411 0 668 -288q258 -289 258 -817zM1786 1081q0 413 -170 631q-169 217 -457 217q-286 0 -454 -217q-168 -218 -168 -631t168 -637 q168 -223 454 -223q288 0 457 223q170 224 170 637zM1778 2654q0 -90 -66 -157q-66 -68 -160 -68q-93 0 -159 68q-66 67 -66 157q0 94 68 162t157 68q90 0 158 -68t68 -162zM983 2654q0 -91 -65 -157q-66 -68 -156 -68q-96 0 -162 65q-68 66 -68 160t68 162t162 68 q90 0 156 -68q65 -66 65 -162z" />
<glyph unicode="&#xf7;" horiz-adv-x="2981" d="M2900 1413l-680 -495q-25 -17 -37 -13q-20 7 -8 41l123 328h-660v-733l328 123q33 12 41 -9q5 -13 -12 -37l-496 -679l-495 679q-17 25 -13 37q8 21 41 9l328 -123v733h-676l123 -328q12 -34 -8 -41q-12 -4 -37 13l-680 495l680 496q24 17 37 12q20 -7 8 -41l-123 -328 h676v775l-328 -123q-34 -12 -41 8q-4 12 13 37l495 680l496 -680q17 -24 12 -37q-7 -20 -41 -8l-328 123v-775h660l-123 328q-12 34 8 41q13 5 37 -12z" />
<glyph unicode="&#xf8;" horiz-adv-x="2318" d="M2093 1090q0 -528 -266 -832q-265 -303 -676 -303q-198 0 -352 65l-107 -225h-270l168 352q-365 291 -365 926q0 526 267 825q266 297 675 297q193 0 365 -69l110 229h271l-172 -356q352 -291 352 -909zM1417 1884q-112 53 -258 53q-291 0 -461 -219q-170 -220 -170 -637 q0 -433 189 -667zM1794 1081q0 423 -180 648l-701 -1467q110 -49 246 -49q291 0 463 225q172 224 172 643z" />
<glyph unicode="&#xf9;" horiz-adv-x="2322" d="M1982 0h-307v262q-208 -307 -594 -307q-357 0 -555 217q-198 218 -198 668v1310h307v-1257q0 -344 125 -508t383 -164q238 0 385 168t147 504v1257h307v-2150zM1303 2437h-242l-619 655h439z" />
<glyph unicode="&#xfa;" horiz-adv-x="2322" d="M1982 0h-307v262q-208 -307 -594 -307q-357 0 -555 217q-198 218 -198 668v1310h307v-1257q0 -344 125 -508t383 -164q238 0 385 168t147 504v1257h307v-2150zM1847 3092l-618 -655h-242l422 655h438z" />
<glyph unicode="&#xfb;" horiz-adv-x="2322" d="M1982 0h-307v262q-208 -307 -594 -307q-357 0 -555 217q-198 218 -198 668v1310h307v-1257q0 -344 125 -508t383 -164q238 0 385 168t147 504v1257h307v-2150zM1835 2437h-266l-414 422l-414 -422h-258l504 655h344z" />
<glyph unicode="&#xfc;" horiz-adv-x="2322" d="M1982 0h-307v262q-208 -307 -594 -307q-357 0 -555 217q-198 218 -198 668v1310h307v-1257q0 -344 125 -508t383 -164q238 0 385 168t147 504v1257h307v-2150zM1782 2695q0 -90 -68 -158q-67 -67 -158 -67q-90 0 -157 67q-68 68 -68 158q0 94 68 162t157 68q90 0 158 -68 t68 -162zM987 2695q0 -92 -65 -158q-66 -67 -156 -67q-96 0 -162 65q-67 66 -67 160q0 95 67 162q68 68 162 68q90 0 156 -68q65 -66 65 -162z" />
<glyph unicode="&#xfd;" horiz-adv-x="2174" d="M2011 2150l-1069 -2908h-307l295 783l-766 2125h323l525 -1560l73 -221l74 217l529 1564h323zM1782 3052l-619 -656h-241l421 656h439z" />
<glyph unicode="&#xfe;" horiz-adv-x="2289" d="M2064 1110q0 -550 -229 -852q-229 -303 -582 -303q-352 0 -606 287v-860l-307 -173v3605l307 172v-1098q282 307 647 307q345 0 557 -272q213 -273 213 -813zM1761 1106q0 402 -143 612q-144 211 -401 211q-320 0 -570 -311v-1073q94 -144 248 -234q153 -90 334 -90 q532 0 532 885z" />
<glyph unicode="&#xff;" horiz-adv-x="2174" d="M2011 2150l-1069 -2908h-307l295 783l-766 2125h323l525 -1560l73 -221l74 217l529 1564h323zM1712 2654q0 -91 -65 -157q-66 -68 -160 -68t-160 68q-65 66 -65 157q0 95 67 162q68 68 158 68t158 -68q67 -67 67 -162zM918 2654q0 -90 -66 -157q-66 -68 -156 -68 q-95 0 -161 65q-68 66 -68 160t68 162t161 68q90 0 156 -68t66 -162z" />
<glyph unicode="&#x152;" horiz-adv-x="4272" d="M4039 0h-1749v475q-147 -253 -342 -387q-194 -133 -518 -133q-528 0 -852 414t-324 1065t324 1065q323 413 852 413q569 0 860 -508v463h1687v-291h-1401v-901h807v-291h-807v-1093h1463v-291zM2290 1430q0 536 -244 864q-243 327 -625 327q-377 0 -612 -323 q-236 -325 -236 -860q0 -537 242 -865q241 -327 623 -327q378 0 614 323q238 325 238 861z" />
<glyph unicode="&#x153;" horiz-adv-x="3670" d="M3437 1139q0 -88 -13 -168h-1392q21 -348 174 -549t403 -201q163 0 287 47q122 46 287 158l143 -221q-215 -136 -373 -193q-159 -57 -377 -57q-234 0 -426 147q-191 146 -274 365q-95 -231 -283 -371q-189 -141 -463 -141q-389 0 -647 295q-258 296 -258 823 q0 525 264 823q264 299 658 299q268 0 459 -143q193 -145 278 -364q90 224 275 366q185 141 434 141q393 0 618 -292q226 -294 226 -764zM3150 1221q-21 328 -162 518t-399 190q-234 0 -381 -180q-148 -181 -176 -528h1118zM1745 1081q0 411 -166 629q-167 219 -440 219 q-276 0 -439 -217t-163 -631q0 -416 165 -637q166 -223 437 -223q274 0 440 223t166 637z" />
<glyph unicode="&#x178;" horiz-adv-x="2670" d="M2478 2867l-983 -1728v-1139h-319v1135l-983 1732h364l459 -823q201 -366 323 -614q142 286 324 614l459 823h356zM1954 3269q0 -90 -68 -158t-157 -68q-90 0 -158 68t-68 158q0 93 68 161t158 68q89 0 157 -68t68 -161zM1159 3269q0 -92 -65 -158q-66 -68 -156 -68 q-94 0 -162 66q-67 66 -67 160t67 161q68 68 162 68q90 0 156 -68q65 -66 65 -161z" />
<glyph unicode="&#x2c6;" horiz-adv-x="2048" d="M1700 2437h-266l-414 422l-414 -422h-258l504 655h344z" />
<glyph unicode="&#x2dc;" horiz-adv-x="2048" d="M1753 2982q0 -258 -119 -395q-120 -138 -299 -138q-163 0 -303 107q-154 119 -211 151q-52 29 -112 29q-127 0 -160 -274h-254q0 258 119 395t299 137q164 0 303 -106q151 -117 207 -148q60 -33 116 -33q122 0 160 275h254z" />
<glyph unicode="&#x3bc;" horiz-adv-x="3153" d="M3072 1413l-721 -479q-17 -13 -31 -13q-8 0 -14 5q-24 16 -12 37l123 307h-1680l123 -307q12 -21 -12 -37q-6 -5 -14 -5q-14 0 -31 13l-721 479l721 479q18 13 31 13q8 0 14 -4q24 -16 12 -37l-123 -308h1680l-123 308q-12 21 12 37q6 4 14 4q13 0 31 -13z" />
<glyph unicode="&#x2000;" horiz-adv-x="1851" />
<glyph unicode="&#x2001;" horiz-adv-x="3706" />
<glyph unicode="&#x2002;" horiz-adv-x="1851" />
<glyph unicode="&#x2003;" horiz-adv-x="3706" />
<glyph unicode="&#x2004;" horiz-adv-x="1232" />
<glyph unicode="&#x2005;" horiz-adv-x="925" />
<glyph unicode="&#x2006;" horiz-adv-x="614" />
<glyph unicode="&#x2007;" horiz-adv-x="614" />
<glyph unicode="&#x2008;" horiz-adv-x="462" />
<glyph unicode="&#x2009;" horiz-adv-x="741" />
<glyph unicode="&#x200a;" horiz-adv-x="204" />
<glyph unicode="&#x2010;" horiz-adv-x="1318" d="M1110 1348h-901v299h901v-299z" />
<glyph unicode="&#x2011;" horiz-adv-x="1318" d="M1110 1348h-901v299h901v-299z" />
<glyph unicode="&#x2013;" horiz-adv-x="1728" d="M1520 1352h-1311v290h1311v-290z" />
<glyph unicode="&#x2014;" horiz-adv-x="2375" d="M2167 1352h-1958v290h1958v-290z" />
<glyph unicode="&#x2018;" horiz-adv-x="1032" d="M725 2867l-61 -913h-418l266 913h213z" />
<glyph unicode="&#x2019;" horiz-adv-x="1032" d="M786 2867l-266 -913h-213l62 913h417z" />
<glyph unicode="&#x201a;" horiz-adv-x="1032" d="M786 471l-266 -913h-213l62 913h417z" />
<glyph unicode="&#x201c;" horiz-adv-x="1921" d="M1614 2867l-62 -913h-417l266 913h213zM725 2867l-61 -913h-418l266 913h213z" />
<glyph unicode="&#x201d;" horiz-adv-x="1921" d="M1675 2867l-266 -913h-213l61 913h418zM786 2867l-266 -913h-213l62 913h417z" />
<glyph unicode="&#x201e;" horiz-adv-x="1921" d="M1675 471l-266 -913h-213l61 913h418zM786 471l-266 -913h-213l62 913h417z" />
<glyph unicode="&#x2022;" horiz-adv-x="1531" d="M1204 1499q0 -180 -129 -309t-309 -129t-309 129t-129 309q0 179 129 313t309 134t309 -134t129 -313z" />
<glyph unicode="&#x2026;" horiz-adv-x="2949" d="M2720 217q0 -106 -78 -184t-184 -78q-107 0 -185 78t-78 184q0 107 78 189q77 81 185 81q104 0 182 -81q80 -83 80 -189zM1737 217q0 -106 -78 -184t-184 -78q-107 0 -185 78t-78 184q0 107 78 189q77 81 185 81q104 0 182 -81q80 -83 80 -189zM754 217q0 -106 -78 -184 t-184 -78q-107 0 -185 78t-78 184q0 107 78 189q77 81 185 81q104 0 182 -81q80 -83 80 -189z" />
<glyph unicode="&#x202f;" horiz-adv-x="741" />
<glyph unicode="&#x2039;" horiz-adv-x="1486" d="M1303 0h-349l-831 1073l831 1077h349l-832 -1073z" />
<glyph unicode="&#x203a;" horiz-adv-x="1486" d="M1364 1077l-832 -1077h-348l832 1073l-832 1077h348z" />
<glyph unicode="&#x205f;" horiz-adv-x="925" />
<glyph unicode="&#x20ac;" horiz-adv-x="2437" d="M586 1020q66 -378 258 -580t504 -202q212 0 362 90q149 89 301 282l205 -180q-178 -231 -381 -354q-200 -121 -496 -121q-511 0 -804 389t-293 1086q0 704 299 1093t811 389q295 0 491 -106q199 -108 361 -352l-238 -185q-135 197 -270 279q-134 82 -353 82 q-302 0 -493 -193q-191 -192 -260 -553h1102v-258h-1135q-4 -55 -4 -188q0 -113 4 -160h1135v-258h-1106z" />
<glyph unicode="&#x2122;" horiz-adv-x="3121" d="M1237 2695h-475v-1462h-197v1462h-475v172h1147v-172zM2937 1233h-184v1085v176q-21 -84 -99 -274l-430 -1032l-418 1032q-71 172 -98 274v-176v-1085h-184v1634h213l385 -979q74 -176 110 -299q20 64 107 299l389 979h209v-1634z" />
</font>
</defs>
</svg>
